<?xml version="1.0" standalone="no"?>
<!DOCTYPE svg PUBLIC "-//W3C//DTD SVG 20010904//EN"
 "http://www.w3.org/TR/2001/REC-SVG-20010904/DTD/svg10.dtd">
<svg version="1.0" xmlns="http://www.w3.org/2000/svg"
 width="2500.000000pt" height="2500.000000pt" viewBox="0 0 2500.000000 2500.000000"
 preserveAspectRatio="xMidYMid meet">
<metadata>
Created by potrace 1.16, written by Peter Selinger 2001-2019
</metadata>
<g transform="translate(0.000000,2500.000000) scale(0.100000,-0.100000)"
fill="#000000" stroke="none">
<path d="M15180 23224 c-1667 -78 -2943 -394 -3925 -972 -322 -190 -594 -400
-850 -656 -239 -239 -392 -432 -550 -696 -127 -212 -277 -541 -334 -735 -55
-188 -123 -546 -158 -830 -26 -216 -26 -768 0 -940 50 -334 136 -580 278 -795
l62 -95 -22 -220 c-37 -383 -45 -531 -45 -870 0 -250 4 -362 17 -464 28 -219
69 -358 132 -443 39 -53 55 -60 55 -25 0 130 212 3883 225 3972 29 206 107
489 168 615 26 53 12 49 312 76 233 21 706 24 1020 6 291 -16 1086 -25 1350
-15 151 6 240 5 315 -4 164 -20 650 -28 830 -14 428 33 818 114 1220 252 765
264 974 329 1290 403 347 81 613 116 865 116 244 -1 343 -22 564 -120 707
-315 1363 -846 1853 -1503 137 -184 275 -400 340 -532 l25 -50 -88 -1575 c-48
-866 -93 -1662 -99 -1769 -7 -107 -10 -226 -8 -265 10 -182 150 -322 332 -334
82 -4 233 25 305 60 81 39 156 130 182 223 8 26 77 1185 79 1335 1 33 -16 128
-41 235 l-42 179 42 191 c145 664 205 1173 205 1740 0 346 -14 540 -59 815
-132 799 -474 1431 -1005 1856 -248 198 -568 359 -854 430 l-104 26 -6 42 c-4
22 -21 75 -39 116 -107 246 -332 444 -722 635 -508 249 -1225 435 -2205 572
-177 25 -225 27 -520 28 -179 1 -354 0 -390 -1z m-1481 -480 c-43 -47 -192
-160 -310 -237 -339 -221 -873 -477 -1464 -702 -289 -110 -545 -199 -525 -183
60 50 230 172 351 251 371 244 832 479 1314 670 165 66 623 225 649 227 5 0
-1 -12 -15 -26z m1023 -926 c31 -15 64 -38 75 -54 21 -33 23 -105 2 -130 -16
-20 -219 -119 -394 -192 -653 -273 -1436 -422 -2217 -422 -199 0 -495 16 -543
30 l-30 8 35 1 c60 2 430 58 591 91 378 76 584 148 948 329 351 176 529 242
825 306 238 51 351 65 511 61 126 -2 146 -5 197 -28z"/>
<path d="M17250 18435 c-30 -9 -161 -51 -290 -94 -574 -191 -1079 -421 -1502
-683 -170 -106 -175 -120 -98 -306 61 -148 97 -192 156 -192 31 0 72 23 233
128 541 355 987 584 1383 710 264 85 304 83 503 -17 224 -113 428 -248 595
-395 41 -36 84 -66 96 -66 29 0 55 32 61 77 4 34 -1 48 -48 118 -71 108 -322
357 -469 467 -145 108 -304 212 -367 240 -62 28 -178 34 -253 13z"/>
<path d="M11733 18271 c-105 -36 -404 -292 -579 -497 -113 -131 -244 -335
-244 -378 0 -10 9 -34 21 -52 35 -57 53 -48 191 89 134 135 264 242 431 355
165 112 202 127 317 126 303 -3 898 -206 1543 -526 142 -70 269 -128 283 -128
37 0 82 27 98 58 24 47 76 234 76 274 0 22 -5 49 -11 60 -6 12 -73 50 -162 93
-430 207 -1006 390 -1610 510 -198 39 -277 43 -354 16z"/>
<path d="M11865 17174 c-279 -8 -719 -45 -889 -75 -33 -6 -87 -24 -120 -41
-34 -17 -151 -64 -261 -104 -143 -52 -205 -79 -217 -96 -14 -17 -19 -46 -20
-116 -3 -87 -1 -95 20 -112 12 -10 55 -26 95 -35 39 -8 100 -25 133 -36 l62
-20 6 -147 c22 -521 78 -892 158 -1051 40 -79 156 -204 231 -249 86 -52 183
-81 360 -107 587 -88 1188 -125 1688 -106 283 11 339 20 438 71 135 68 240
171 302 296 74 150 195 785 225 1182 l7 92 119 0 c145 0 634 -27 775 -43 l101
-12 6 -325 c7 -421 32 -726 76 -903 52 -211 219 -390 427 -459 83 -27 412 -74
723 -103 259 -24 471 -30 950 -29 494 1 531 5 663 66 140 65 242 165 308 303
73 153 163 512 214 855 14 96 28 189 31 207 4 28 9 32 53 42 26 5 90 15 141
22 129 17 139 26 147 147 5 81 4 95 -13 113 -10 12 -109 66 -219 121 -110 55
-218 113 -240 127 -51 35 -78 45 -200 75 -284 70 -637 132 -975 170 -420 48
-1017 67 -1445 47 -391 -19 -428 -27 -520 -112 -36 -33 -58 -43 -137 -64 -304
-77 -675 -51 -960 66 -55 22 -83 41 -112 75 -73 86 -155 109 -606 174 -483 69
-1081 106 -1525 94z m565 -254 c445 -21 897 -71 1267 -141 136 -25 186 -54
226 -128 34 -62 35 -134 7 -381 -50 -428 -131 -829 -196 -967 -61 -128 -186
-229 -335 -270 -57 -16 -116 -18 -569 -18 -392 1 -549 5 -700 18 -393 35 -775
85 -880 117 -130 38 -252 143 -310 264 -72 152 -130 602 -133 1046 -2 215 -1
227 20 266 31 58 95 110 151 123 99 24 527 64 787 74 175 7 478 6 665 -3z
m4430 -244 c467 -41 886 -107 1243 -195 136 -34 179 -57 218 -119 39 -62 43
-108 24 -268 -57 -482 -166 -935 -260 -1079 -61 -94 -148 -163 -260 -204 -79
-30 -251 -41 -635 -41 -440 0 -792 22 -1205 75 -292 38 -351 50 -433 91 -130
64 -240 202 -271 339 -39 178 -64 520 -65 905 -1 315 0 326 21 365 25 47 65
86 110 109 30 15 142 27 363 40 173 9 975 -3 1150 -18z"/>
<path d="M12839 16612 c-136 -36 -253 -136 -318 -272 -35 -74 -36 -77 -36
-200 0 -124 0 -126 37 -203 169 -353 648 -384 859 -56 69 108 90 279 50 408
-76 245 -339 389 -592 323z m111 -285 c138 -73 88 -288 -67 -290 -85 -1 -149
52 -160 131 -7 54 1 83 34 123 52 61 121 74 193 36z"/>
<path d="M16231 16424 c-293 -79 -445 -420 -307 -691 50 -100 164 -202 266
-239 415 -149 801 280 608 676 -38 78 -132 177 -203 213 -113 57 -248 72 -364
41z m119 -286 c77 -53 99 -131 58 -207 -56 -105 -197 -110 -271 -10 -27 37
-27 115 -1 160 45 77 145 104 214 57z"/>
<path d="M5030 14633 c36 -33 79 -85 95 -114 26 -47 30 -64 30 -129 0 -59 -5
-84 -24 -119 -133 -252 -639 -450 -1351 -528 -228 -24 -758 -24 -980 0 -414
46 -742 130 -973 249 -219 112 -321 229 -321 368 0 84 35 153 117 233 33 33
51 54 40 49 -38 -21 -143 -143 -172 -200 -125 -248 -160 -885 -90 -1637 96
-1043 385 -2257 804 -3379 176 -473 358 -801 639 -1156 128 -162 445 -478 613
-612 792 -629 1870 -1016 3001 -1074 72 -4 132 -10 132 -15 0 -4 -38 -144 -84
-311 -479 -1725 -1133 -4339 -1280 -5118 -57 -297 -99 -667 -112 -977 l-7
-163 9927 0 9926 0 -4 22 c-3 13 -8 55 -11 93 -30 348 -139 905 -255 1305
-114 395 -217 658 -497 1280 -737 1635 -912 2007 -1171 2480 -332 608 -766
1243 -1063 1554 l-102 107 8 537 c5 389 4 560 -5 621 -42 307 -164 534 -333
621 l-62 32 -560 -36 c-1208 -78 -2240 -138 -2680 -156 -295 -12 -351 -23
-450 -88 -147 -95 -260 -281 -309 -508 l-14 -69 -1 75 c-3 288 -85 536 -222
673 -37 37 -87 76 -112 87 -24 11 -606 189 -1293 396 -3197 962 -5299 1601
-6146 1870 -394 124 -413 129 -564 150 -375 51 -690 -15 -912 -193 -63 -50
-138 -125 -164 -162 l-17 -24 -1073 41 c-589 24 -1073 44 -1075 45 -4 5 -394
2422 -503 3125 -66 423 -78 466 -163 584 -48 67 -149 169 -207 207 -19 13 -6
-3 30 -36z m5660 -4378 c201 -57 1236 -357 2300 -665 1064 -309 2021 -586
2125 -616 105 -31 194 -59 198 -63 5 -5 -51 -98 -124 -207 -1357 -2045 -2792
-3590 -4025 -4335 -150 -90 -324 -183 -330 -176 -3 3 -42 110 -86 239 -348
1018 -551 1991 -633 3043 -71 910 -23 1922 126 2670 42 213 47 228 67 220 9
-3 181 -53 382 -110z m-1688 -277 c38 -12 67 -27 65 -33 -43 -109 -600 -2064
-778 -2725 -29 -107 -55 -198 -58 -202 -3 -3 -58 13 -121 37 -95 35 -114 46
-112 62 13 74 385 1294 562 1843 232 721 342 1040 358 1040 9 0 46 -10 84 -22z
m7336 -2152 c1 -2 -23 -99 -53 -217 -180 -707 -474 -1961 -630 -2689 -25 -118
-47 -216 -49 -217 -2 -2 -66 16 -142 40 -132 41 -139 44 -136 67 12 89 259
1086 397 1600 133 496 343 1244 401 1421 l15 47 97 -25 c53 -14 98 -26 100
-27z m-8264 -1057 c11 -10 -123 -479 -136 -479 -8 0 -47 18 -56 25 -2 2 29
109 69 239 68 219 74 236 93 230 12 -3 25 -10 30 -15z m7377 -2297 c6 -5 -57
-300 -106 -499 -5 -21 -6 -21 -49 -7 l-44 15 64 247 c35 136 64 251 64 256 0
9 60 0 71 -12z m-4583 -703 c5 -25 -277 -1678 -290 -1698 -15 -25 -61 -51 -88
-51 -28 0 -538 148 -562 164 -25 15 -51 73 -46 105 2 14 159 373 348 797 l344
771 146 -37 c99 -25 146 -41 148 -51z"/>
<path d="M10220 2547 c-50 -26 -90 -90 -90 -144 0 -142 170 -224 274 -132 73
64 83 167 23 236 -58 66 -132 80 -207 40z"/>
<path d="M12304 14393 c53 -187 76 -242 149 -366 303 -511 887 -869 1620 -996
301 -52 725 -70 987 -42 657 71 1194 359 1493 800 50 75 120 213 132 264 6 24
4 27 -18 27 -13 0 -193 16 -398 35 -1105 103 -2636 219 -3559 270 -151 8 -306
17 -343 20 -62 5 -68 4 -63 -12z m771 -223 c619 -38 1460 -100 2190 -161 449
-37 1128 -98 1131 -102 2 -1 -19 -32 -46 -67 -64 -87 -160 -184 -254 -259
l-77 -61 -297 0 c-391 0 -1220 34 -1237 51 -2 3 -12 80 -21 172 -10 92 -21
172 -25 178 -4 7 -34 12 -70 13 l-62 1 -37 -170 c-33 -154 -39 -170 -58 -173
-80 -12 -1153 123 -1269 159 -60 19 -249 242 -333 393 l-33 58 84 -6 c46 -4
233 -15 414 -26z"/>
<path d="M11777 10743 c-43 -5 -73 -39 -62 -73 15 -49 555 -290 1045 -466
1036 -374 2152 -597 3430 -686 252 -18 1398 -18 1650 0 413 29 554 43 573 59
31 29 22 69 -25 103 -57 41 -66 39 -70 -17 l-3 -48 -105 -7 c-58 -3 -269 -12
-470 -18 -1191 -38 -2476 87 -3655 355 -773 175 -1592 443 -2139 699 -91 42
-96 46 -96 75 0 24 -4 31 -17 29 -10 -1 -35 -3 -56 -5z"/>
</g>
</svg>
